<svg xmlns="http://www.w3.org/2000/svg" xmlns:xlink="http://www.w3.org/1999/xlink" width="150px" height="155px" viewBox="0 0 150 154" version="1.1">
<g id="surface1">
<path style=" stroke:none;fill-rule:nonzero;fill:#ffffff;fill-opacity:1;" d="M 85.53125 17.160156 C 80.375 26.597656 76.140625 34.304688 76.121094 34.289062 C 76.105469 34.277344 71.890625 26.570312 66.753906 17.160156 C 61.621094 7.753906 57.40625 0.0507812 57.386719 0.046875 C 57.34375 0.0351562 53.882812 6.386719 53.640625 6.921875 C 53.113281 8.09375 52.761719 9.328125 52.570312 10.679688 C 52.472656 11.351562 52.472656 13.324219 52.570312 13.992188 C 52.773438 15.445312 53.164062 16.753906 53.75 17.96875 C 53.992188 18.464844 56.804688 23.636719 57.355469 24.597656 C 57.996094 25.714844 69.378906 46.589844 69.378906 46.652344 C 69.382812 46.746094 66.160156 52.648438 66.125 52.609375 C 66.097656 52.578125 54.234375 30.878906 54.058594 30.53125 C 53.984375 30.390625 52.457031 27.597656 50.664062 24.324219 C 48.867188 21.046875 46.65625 17.019531 45.757812 15.367188 C 41.582031 7.738281 41.738281 8.015625 41.6875 8.085938 C 41.578125 8.253906 39.058594 12.886719 39.058594 12.925781 C 39.058594 12.953125 39.875 14.464844 40.871094 16.292969 C 41.871094 18.121094 43.132812 20.429688 43.675781 21.421875 C 44.261719 22.496094 44.648438 23.25 44.640625 23.289062 C 44.632812 23.324219 40.214844 31.421875 34.824219 41.285156 C 18.761719 70.667969 3.015625 99.492188 2.992188 99.546875 C 2.976562 99.59375 5.046875 99.601562 20.25 99.601562 C 29.75 99.601562 37.515625 99.589844 37.503906 99.578125 C 37.488281 99.566406 37.226562 99.457031 36.921875 99.339844 C 35.585938 98.824219 34.011719 98.085938 32.972656 97.472656 C 28.96875 95.132812 26.640625 92.089844 26.0625 88.429688 C 25.875 87.257812 25.875 85.792969 26.0625 84.492188 C 26.351562 82.460938 27.113281 80.203125 28.285156 77.898438 C 28.460938 77.554688 30.332031 74.109375 32.445312 70.242188 C 34.5625 66.375 39.6875 56.992188 43.839844 49.398438 C 47.992188 41.800781 51.390625 35.585938 51.398438 35.578125 C 51.402344 35.574219 54.117188 40.523438 57.425781 46.578125 L 63.449219 57.585938 L 59.046875 65.632812 C 56.621094 70.0625 54.644531 73.699219 54.644531 73.722656 C 54.644531 73.785156 76.113281 113.027344 76.148438 113.027344 C 76.179688 113.027344 97.644531 73.78125 97.648438 73.71875 C 97.648438 73.695312 95.667969 70.0625 93.253906 65.640625 C 90.832031 61.222656 88.863281 57.585938 88.867188 57.5625 C 88.894531 57.457031 100.871094 35.582031 100.890625 35.601562 C 100.929688 35.636719 101.363281 36.429688 109.730469 51.742188 C 114.015625 59.578125 118.929688 68.570312 120.652344 71.726562 C 122.378906 74.878906 123.914062 77.707031 124.066406 78.011719 C 125.269531 80.40625 125.996094 82.648438 126.289062 84.859375 C 126.339844 85.261719 126.355469 85.617188 126.355469 86.523438 C 126.355469 87.546875 126.34375 87.742188 126.265625 88.246094 C 125.878906 90.804688 124.773438 92.925781 122.820312 94.847656 C 121.476562 96.164062 119.890625 97.253906 117.808594 98.28125 C 117.039062 98.65625 115.972656 99.121094 115.265625 99.382812 C 115.035156 99.464844 114.828125 99.550781 114.804688 99.570312 C 114.789062 99.585938 122.222656 99.601562 132.050781 99.601562 C 148.492188 99.601562 149.332031 99.597656 149.304688 99.535156 C 149.28125 99.472656 133.945312 71.402344 117.082031 40.546875 L 107.621094 23.230469 L 110.433594 18.09375 C 111.976562 15.265625 113.238281 12.929688 113.234375 12.90625 C 113.210938 12.800781 110.574219 8.03125 110.550781 8.050781 C 110.519531 8.085938 106.046875 16.25 101.558594 24.46875 C 91.3125 43.234375 86.160156 52.636719 86.136719 52.613281 C 86.082031 52.554688 82.890625 46.6875 82.890625 46.652344 C 82.894531 46.628906 83.570312 45.375 84.398438 43.867188 C 92.226562 29.585938 98.4375 18.210938 98.625 17.804688 C 99.175781 16.609375 99.539062 15.34375 99.734375 13.957031 C 99.824219 13.292969 99.824219 11.425781 99.734375 10.734375 C 99.546875 9.339844 99.152344 7.976562 98.589844 6.769531 C 98.445312 6.460938 94.988281 0.0898438 94.929688 0.03125 C 94.917969 0.0195312 90.691406 7.726562 85.53125 17.160156 Z M 77.789062 61.972656 C 78.679688 63.605469 79.40625 64.96875 79.398438 64.996094 C 79.371094 65.117188 76.15625 70.953125 76.128906 70.929688 C 76.101562 70.898438 72.902344 65.042969 72.890625 64.992188 C 72.878906 64.960938 76.136719 58.964844 76.152344 58.984375 C 76.160156 58.992188 76.894531 60.335938 77.789062 61.972656 Z M 73.167969 75.371094 L 76.144531 80.8125 L 76.203125 80.710938 C 76.238281 80.65625 77.578125 78.207031 79.183594 75.265625 C 81.699219 70.671875 82.113281 69.929688 82.148438 69.984375 C 82.175781 70.023438 82.644531 70.871094 83.199219 71.878906 C 84.066406 73.464844 84.191406 73.71875 84.15625 73.789062 C 84.007812 74.109375 76.171875 88.398438 76.148438 88.398438 C 76.128906 88.398438 75.113281 86.566406 73.890625 84.324219 C 72.660156 82.078125 70.855469 78.773438 69.875 76.976562 L 68.09375 73.714844 L 69.121094 71.824219 C 69.691406 70.785156 70.164062 69.929688 70.175781 69.929688 C 70.1875 69.929688 71.53125 72.378906 73.167969 75.371094 Z M 73.167969 75.371094 "/>
<path style=" stroke:none;fill-rule:nonzero;fill:#ffffff;fill-opacity:1;" d="M 1.25 117.699219 L 1.25 118.503906 L 145.71875 118.503906 L 145.71875 116.890625 L 1.25 116.890625 Z M 145.242188 117.699219 L 145.242188 118.027344 L 73.492188 118.019531 L 1.746094 118.007812 L 1.734375 117.6875 L 1.726562 117.367188 L 145.242188 117.367188 Z M 145.242188 117.699219 "/>
<path style=" stroke:none;fill-rule:nonzero;fill:#ffffff;fill-opacity:1;" d="M 85.621094 119.621094 C 85.492188 119.757812 85.199219 119.886719 84.921875 119.933594 C 84.769531 119.953125 82.835938 119.96875 79.398438 119.96875 L 74.109375 119.96875 L 74.109375 120.578125 L 74.320312 120.644531 C 74.847656 120.8125 75.027344 121.039062 75.125 121.691406 C 75.203125 122.207031 75.203125 132.640625 75.125 133.15625 C 75.027344 133.808594 74.847656 134.035156 74.320312 134.203125 L 74.109375 134.269531 L 74.109375 134.878906 L 79.785156 134.878906 C 85.871094 134.878906 85.777344 134.878906 86.089844 135.0625 C 86.164062 135.105469 86.222656 135.132812 86.230469 135.128906 C 86.253906 135.082031 88.117188 129.074219 88.109375 129.0625 C 88.089844 129.042969 87.558594 128.941406 87.550781 128.953125 C 87.550781 128.957031 87.425781 129.1875 87.277344 129.457031 C 86.054688 131.683594 84.65625 132.886719 82.851562 133.273438 C 82.339844 133.378906 81.285156 133.390625 80.890625 133.292969 C 80.375 133.160156 80.105469 132.929688 79.960938 132.484375 C 79.820312 132.050781 79.8125 131.8125 79.8125 129.03125 L 79.8125 126.335938 L 80.742188 126.355469 C 81.703125 126.371094 81.925781 126.402344 82.371094 126.566406 C 83.105469 126.835938 83.597656 127.417969 84.007812 128.484375 C 84.160156 128.890625 84.144531 128.878906 84.457031 128.792969 C 84.585938 128.761719 84.59375 128.746094 84.578125 128.65625 C 84.546875 128.519531 83.636719 123.132812 83.636719 123.105469 C 83.636719 123.089844 83.53125 123.082031 83.40625 123.089844 L 83.179688 123.101562 L 83.132812 123.382812 C 83.042969 123.914062 82.832031 124.324219 82.550781 124.519531 C 82.253906 124.722656 81.925781 124.773438 80.8125 124.796875 L 79.804688 124.8125 L 79.816406 123.648438 C 79.835938 122.390625 79.855469 122.265625 80.054688 121.921875 C 80.269531 121.546875 81.011719 121.394531 82.082031 121.507812 C 83.992188 121.710938 85.371094 122.660156 86.199219 124.351562 C 86.292969 124.546875 86.375 124.714844 86.378906 124.722656 C 86.382812 124.726562 86.507812 124.714844 86.664062 124.691406 C 86.882812 124.65625 86.945312 124.636719 86.945312 124.589844 C 86.941406 124.554688 86.667969 123.40625 86.328125 122.027344 L 85.710938 119.53125 Z M 85.621094 119.621094 "/>
<path style=" stroke:none;fill-rule:nonzero;fill:#ffffff;fill-opacity:1;" d="M 101.601562 119.789062 C 101.289062 119.976562 101.46875 119.972656 95.402344 119.960938 L 89.757812 119.949219 L 89.527344 119.84375 C 89.402344 119.785156 89.292969 119.746094 89.285156 119.753906 C 89.253906 119.785156 88.265625 124.847656 88.285156 124.867188 C 88.308594 124.890625 88.871094 124.992188 88.875 124.976562 C 88.875 124.972656 88.9375 124.820312 89 124.640625 C 89.625 122.96875 90.667969 122.046875 92.203125 121.820312 C 92.398438 121.789062 92.699219 121.765625 92.878906 121.765625 L 93.199219 121.765625 L 93.199219 127.058594 C 93.199219 130.539062 93.183594 132.476562 93.15625 132.710938 C 93.113281 133.125 93.035156 133.441406 92.941406 133.636719 C 92.789062 133.929688 92.398438 134.175781 91.976562 134.234375 L 91.800781 134.257812 L 91.800781 134.878906 L 99.230469 134.878906 L 99.230469 134.265625 L 99.042969 134.242188 C 98.800781 134.207031 98.523438 134.101562 98.363281 133.980469 C 98.085938 133.773438 97.945312 133.394531 97.871094 132.660156 C 97.847656 132.394531 97.832031 130.550781 97.832031 127.011719 L 97.832031 121.765625 L 98.15625 121.765625 C 99.023438 121.769531 99.800781 121.992188 100.449219 122.421875 C 101.109375 122.867188 101.710938 123.71875 102.046875 124.675781 C 102.101562 124.835938 102.148438 124.972656 102.152344 124.976562 C 102.160156 124.988281 102.769531 124.886719 102.777344 124.871094 C 102.789062 124.855469 101.738281 119.746094 101.722656 119.730469 C 101.714844 119.726562 101.660156 119.753906 101.601562 119.789062 Z M 101.601562 119.789062 "/>
<path style=" stroke:none;fill-rule:nonzero;fill:#ffffff;fill-opacity:1;" d="M 29.9375 120.277344 L 29.9375 120.585938 L 30.117188 120.695312 C 30.21875 120.757812 30.347656 120.867188 30.402344 120.945312 C 30.5 121.070312 30.507812 121.105469 30.503906 121.394531 L 30.5 121.710938 L 28.679688 126.710938 C 27.675781 129.460938 26.804688 131.835938 26.742188 131.992188 C 26.433594 132.761719 26.066406 133.417969 25.792969 133.671875 C 25.578125 133.882812 25.261719 134.066406 24.9375 134.171875 L 24.640625 134.265625 L 24.640625 134.878906 L 29.71875 134.878906 L 29.71875 134.265625 L 29.492188 134.242188 C 29.089844 134.199219 28.796875 134.019531 28.640625 133.722656 C 28.484375 133.425781 28.527344 132.789062 28.75 132.078125 C 28.894531 131.625 29.726562 129.296875 29.757812 129.257812 C 29.773438 129.242188 29.953125 129.246094 30.167969 129.269531 C 31.738281 129.449219 33.03125 129.996094 33.945312 130.867188 C 34.625 131.515625 34.941406 132.179688 34.941406 132.953125 C 34.941406 133.667969 34.699219 134.007812 34.070312 134.191406 L 33.800781 134.269531 L 33.800781 134.878906 L 41.449219 134.878906 L 41.449219 134.261719 L 41.296875 134.238281 C 40.726562 134.144531 40.378906 133.777344 39.984375 132.832031 C 39.820312 132.429688 36.253906 121.953125 36.191406 121.679688 C 36.171875 121.59375 36.152344 121.425781 36.152344 121.300781 C 36.152344 121.125 36.171875 121.058594 36.238281 120.964844 C 36.339844 120.828125 36.457031 120.738281 36.625 120.652344 L 36.742188 120.589844 L 36.742188 119.96875 L 29.9375 119.96875 Z M 32.75 126.003906 C 33.1875 127.4375 33.542969 128.621094 33.542969 128.632812 C 33.542969 128.644531 33.472656 128.609375 33.386719 128.558594 C 32.625 128.09375 31.605469 127.757812 30.523438 127.605469 L 30.355469 127.585938 L 31.128906 125.464844 C 31.554688 124.296875 31.914062 123.355469 31.929688 123.367188 C 31.9375 123.382812 32.308594 124.566406 32.75 126.003906 Z M 32.75 126.003906 "/>
<path style=" stroke:none;fill-rule:nonzero;fill:#ffffff;fill-opacity:1;" d="M 41.855469 120.273438 L 41.855469 120.582031 L 42.066406 120.644531 C 42.5 120.773438 42.730469 121.019531 42.835938 121.453125 C 42.894531 121.6875 42.902344 122.175781 42.914062 127.203125 C 42.925781 132.835938 42.917969 133.160156 42.785156 133.558594 C 42.675781 133.886719 42.457031 134.078125 42.0625 134.203125 L 41.855469 134.269531 L 41.855469 134.878906 L 48.621094 134.878906 L 48.621094 134.257812 L 48.429688 134.203125 C 47.960938 134.070312 47.742188 133.820312 47.636719 133.300781 C 47.582031 133.023438 47.574219 132.710938 47.574219 130.484375 L 47.574219 127.984375 L 48.417969 127.726562 L 48.597656 127.925781 C 49.550781 128.984375 50.144531 129.835938 50.71875 130.957031 C 51.238281 131.984375 51.445312 132.597656 51.480469 133.199219 C 51.507812 133.71875 51.421875 133.878906 50.933594 134.160156 L 50.753906 134.261719 L 50.753906 134.878906 L 57.707031 134.878906 L 57.707031 134.261719 L 57.570312 134.214844 C 57.160156 134.082031 56.707031 133.578125 56.339844 132.84375 C 56.265625 132.703125 56.03125 132.167969 55.816406 131.65625 C 55.347656 130.539062 54.59375 129.011719 54.167969 128.308594 C 53.765625 127.652344 53.324219 127.019531 52.945312 126.566406 C 52.769531 126.359375 52.632812 126.183594 52.632812 126.167969 C 52.632812 126.152344 52.8125 126.03125 53.027344 125.894531 C 54 125.296875 54.839844 124.542969 55.183594 123.972656 C 55.707031 123.09375 55.777344 121.957031 55.367188 121.175781 C 55.023438 120.519531 54.261719 120.121094 53.140625 120.003906 C 52.902344 119.984375 50.828125 119.96875 47.3125 119.96875 L 41.855469 119.96875 Z M 49.925781 121.519531 C 50.753906 121.75 51.089844 122.265625 51.042969 123.242188 C 50.964844 124.6875 49.742188 125.785156 47.65625 126.285156 L 47.550781 126.308594 L 47.574219 122.113281 L 47.679688 121.894531 C 47.773438 121.710938 47.808594 121.671875 47.976562 121.59375 C 48.078125 121.546875 48.269531 121.492188 48.402344 121.476562 C 48.722656 121.425781 49.695312 121.453125 49.925781 121.519531 Z M 49.925781 121.519531 "/>
<path style=" stroke:none;fill-rule:nonzero;fill:#ffffff;fill-opacity:1;" d="M 58.109375 120.273438 L 58.109375 120.578125 L 58.320312 120.644531 C 58.851562 120.8125 59.027344 121.039062 59.125 121.691406 C 59.203125 122.207031 59.203125 132.640625 59.125 133.15625 C 59.027344 133.808594 58.851562 134.035156 58.320312 134.203125 L 58.109375 134.269531 L 58.109375 134.878906 L 64.878906 134.878906 L 64.878906 134.257812 L 64.6875 134.203125 C 64.402344 134.125 64.164062 133.957031 64.054688 133.769531 C 63.84375 133.414062 63.835938 133.324219 63.824219 130.207031 L 63.808594 127.347656 L 64.171875 127.082031 C 64.375 126.9375 64.554688 126.820312 64.570312 126.820312 C 64.617188 126.820312 65.222656 127.644531 65.625 128.246094 C 66.578125 129.691406 67.292969 131.230469 67.601562 132.496094 C 67.695312 132.886719 67.734375 133.554688 67.675781 133.773438 C 67.621094 133.964844 67.4375 134.152344 67.238281 134.210938 L 67.085938 134.257812 L 67.085938 134.878906 L 73.960938 134.878906 L 73.960938 134.265625 L 73.75 134.191406 C 73.296875 134.023438 72.851562 133.53125 72.488281 132.792969 C 72.375 132.566406 72.152344 131.972656 71.941406 131.320312 C 71.125 128.855469 70.332031 127.183594 69.269531 125.683594 C 68.914062 125.179688 68.335938 124.511719 67.949219 124.15625 C 67.777344 124.003906 67.636719 123.863281 67.636719 123.847656 C 67.636719 123.804688 68.96875 122.589844 69.367188 122.269531 C 70.457031 121.398438 71.742188 120.757812 72.667969 120.628906 L 72.96875 120.585938 L 72.96875 119.96875 L 66.644531 119.96875 L 66.644531 120.585938 L 66.8125 120.644531 C 67.160156 120.761719 67.375 121.023438 67.378906 121.328125 C 67.378906 121.566406 67.097656 122.03125 66.601562 122.589844 C 66.496094 122.710938 65.824219 123.402344 65.109375 124.125 L 63.804688 125.441406 L 63.824219 123.613281 C 63.839844 121.625 63.859375 121.410156 64.050781 121.085938 C 64.15625 120.898438 64.414062 120.71875 64.683594 120.644531 L 64.878906 120.589844 L 64.878906 119.96875 L 58.109375 119.96875 Z M 58.109375 120.273438 "/>
<path style=" stroke:none;fill-rule:nonzero;fill:#ffffff;fill-opacity:1;" d="M 103.605469 120.273438 L 103.605469 120.578125 L 103.816406 120.644531 C 104.183594 120.761719 104.394531 120.933594 104.511719 121.214844 C 104.667969 121.582031 104.671875 121.777344 104.671875 127.421875 C 104.671875 133.070312 104.667969 133.265625 104.511719 133.632812 C 104.394531 133.914062 104.183594 134.085938 103.816406 134.203125 L 103.605469 134.269531 L 103.605469 134.878906 L 110.375 134.878906 L 110.375 134.257812 L 110.179688 134.203125 C 109.914062 134.128906 109.652344 133.949219 109.546875 133.765625 C 109.5 133.683594 109.429688 133.476562 109.390625 133.304688 C 109.328125 133.011719 109.324219 132.664062 109.324219 127.421875 C 109.324219 122.179688 109.328125 121.835938 109.390625 121.542969 C 109.429688 121.371094 109.5 121.164062 109.546875 121.082031 C 109.652344 120.898438 109.914062 120.71875 110.179688 120.644531 L 110.375 120.589844 L 110.375 119.96875 L 103.605469 119.96875 Z M 103.605469 120.273438 "/>
<path style=" stroke:none;fill-rule:nonzero;fill:#ffffff;fill-opacity:1;" d="M 112.433594 120.273438 L 112.433594 120.578125 L 112.644531 120.644531 C 113.011719 120.761719 113.222656 120.933594 113.339844 121.214844 C 113.492188 121.582031 113.5 121.777344 113.5 127.421875 C 113.5 133.070312 113.492188 133.265625 113.339844 133.632812 C 113.222656 133.914062 113.011719 134.085938 112.644531 134.203125 L 112.433594 134.269531 L 112.433594 134.878906 L 116.847656 134.878906 L 116.847656 134.265625 L 116.601562 134.222656 C 115.984375 134.109375 115.683594 133.824219 115.546875 133.203125 C 115.425781 132.675781 115.410156 131.894531 115.421875 127.296875 L 115.429688 122.769531 L 119.527344 127.351562 L 123.621094 131.925781 L 123.605469 132.589844 C 123.585938 133.308594 123.539062 133.566406 123.371094 133.816406 C 123.242188 134.007812 122.917969 134.167969 122.539062 134.226562 L 122.253906 134.269531 L 122.253906 134.878906 L 126.628906 134.878906 L 126.628906 134.257812 L 126.4375 134.203125 C 125.984375 134.074219 125.761719 133.828125 125.644531 133.335938 C 125.585938 133.085938 125.582031 132.628906 125.582031 127.421875 C 125.582031 122.21875 125.585938 121.761719 125.644531 121.511719 C 125.761719 121.019531 125.984375 120.773438 126.4375 120.644531 L 126.628906 120.589844 L 126.628906 119.96875 L 122.546875 119.96875 L 122.546875 120.578125 L 122.8125 120.660156 C 123.015625 120.726562 123.109375 120.78125 123.246094 120.917969 C 123.570312 121.238281 123.621094 121.621094 123.605469 123.648438 L 123.597656 125.140625 L 122.089844 123.476562 C 120.992188 122.261719 120.546875 121.746094 120.460938 121.582031 C 120.253906 121.1875 120.320312 120.914062 120.671875 120.695312 L 120.855469 120.582031 L 120.855469 119.96875 L 112.433594 119.96875 Z M 112.433594 120.273438 "/>
<path style=" stroke:none;fill-rule:nonzero;fill:#ffffff;fill-opacity:1;" d="M 144.191406 120.230469 C 143.730469 120.472656 143.339844 120.609375 142.9375 120.671875 C 142.597656 120.726562 142.246094 120.691406 140.828125 120.464844 C 139 120.171875 138.105469 120.09375 136.910156 120.125 C 134.457031 120.199219 132.523438 120.761719 131 121.847656 C 129 123.273438 127.859375 125.355469 127.570312 128.113281 C 127.496094 128.820312 127.496094 130.304688 127.570312 131.023438 C 127.789062 133.148438 128.441406 134.917969 129.550781 136.398438 C 129.949219 136.929688 130.949219 137.9375 131.449219 138.308594 C 132.898438 139.382812 134.5 140.054688 136.457031 140.390625 C 137.84375 140.628906 138.945312 140.667969 141.085938 140.554688 C 142.363281 140.488281 143.144531 140.472656 145.894531 140.457031 L 149.175781 140.4375 L 149.175781 139.71875 L 149.023438 139.675781 C 148.300781 139.496094 147.878906 139.15625 147.703125 138.609375 C 147.519531 138.019531 147.507812 137.757812 147.507812 134.566406 C 147.503906 131.332031 147.515625 131.039062 147.71875 130.449219 C 147.894531 129.925781 148.253906 129.617188 148.910156 129.421875 L 149.175781 129.339844 L 149.175781 128.539062 L 139.722656 128.539062 L 139.722656 129.339844 L 139.988281 129.421875 C 140.34375 129.527344 140.582031 129.652344 140.78125 129.835938 C 140.996094 130.035156 141.097656 130.191406 141.191406 130.496094 C 141.355469 131.03125 141.378906 131.429688 141.378906 133.855469 C 141.378906 135.207031 141.363281 136.269531 141.339844 136.484375 C 141.234375 137.445312 141.011719 137.898438 140.507812 138.164062 C 140.128906 138.367188 139.890625 138.410156 139.191406 138.410156 C 138.640625 138.40625 138.523438 138.394531 138.210938 138.3125 C 137.699219 138.175781 137.351562 138.019531 136.902344 137.722656 C 135.554688 136.839844 134.402344 135.019531 133.859375 132.914062 C 133.707031 132.332031 133.609375 131.78125 133.523438 131.050781 C 133.433594 130.28125 133.429688 128.660156 133.519531 128.027344 C 133.695312 126.761719 134.046875 125.773438 134.617188 124.914062 C 134.90625 124.480469 135.585938 123.789062 135.988281 123.523438 C 136.808594 122.976562 137.703125 122.703125 138.824219 122.652344 C 140.808594 122.570312 142.386719 123.339844 143.792969 125.070312 C 144.019531 125.355469 144.574219 126.15625 144.75 126.460938 L 144.832031 126.597656 L 145.1875 126.597656 C 145.375 126.597656 145.535156 126.589844 145.539062 126.570312 C 145.542969 126.5 144.628906 120.003906 144.617188 120.007812 C 144.605469 120.011719 144.417969 120.109375 144.191406 120.230469 Z M 144.191406 120.230469 "/>
<path style=" stroke:none;fill-rule:nonzero;fill:#ffffff;fill-opacity:1;" d="M 1.398438 120.488281 L 1.398438 120.902344 L 1.722656 121.003906 C 2.515625 121.257812 2.730469 121.636719 2.832031 122.972656 C 2.882812 123.644531 2.882812 136.441406 2.832031 137.113281 C 2.730469 138.449219 2.511719 138.835938 1.722656 139.078125 L 1.398438 139.183594 L 1.398438 140.007812 L 7.320312 140.007812 L 7.320312 139.179688 L 6.980469 139.117188 C 6.074219 138.945312 5.710938 138.546875 5.535156 137.554688 C 5.417969 136.878906 5.402344 136.054688 5.414062 130.335938 L 5.425781 124.679688 L 7.773438 129.457031 C 9.070312 132.085938 10.3125 134.609375 10.539062 135.070312 L 10.953125 135.898438 L 13.753906 130.34375 C 15.300781 127.289062 16.570312 124.777344 16.578125 124.769531 C 16.582031 124.761719 16.582031 127.503906 16.578125 130.867188 C 16.566406 137.570312 16.570312 137.433594 16.34375 138.09375 C 16.140625 138.699219 15.742188 139.003906 15 139.132812 L 14.75 139.171875 L 14.75 140.007812 L 24.199219 140.007812 L 24.199219 139.167969 L 24.046875 139.128906 C 23.769531 139.054688 23.597656 138.980469 23.421875 138.851562 C 23.082031 138.605469 22.960938 138.359375 22.851562 137.664062 C 22.789062 137.265625 22.785156 136.820312 22.785156 130.023438 C 22.785156 123.3125 22.789062 122.78125 22.851562 122.421875 C 22.96875 121.71875 23.101562 121.453125 23.441406 121.214844 C 23.613281 121.101562 23.796875 121.019531 24.046875 120.957031 L 24.199219 120.917969 L 24.199219 120.078125 L 14.894531 120.078125 L 14.894531 120.914062 L 15.054688 121.003906 C 15.25 121.121094 15.355469 121.234375 15.429688 121.40625 C 15.550781 121.699219 15.492188 121.925781 15.109375 122.664062 C 14.980469 122.90625 14.425781 123.984375 13.871094 125.054688 C 13.3125 126.125 12.851562 127.003906 12.839844 127.003906 C 12.808594 127.003906 10.832031 122.488281 10.707031 122.148438 C 10.574219 121.78125 10.578125 121.496094 10.714844 121.292969 C 10.773438 121.203125 10.902344 121.085938 11 121.023438 L 11.179688 120.910156 L 11.179688 120.078125 L 1.398438 120.078125 Z M 1.398438 120.488281 "/>
<path style=" stroke:none;fill-rule:nonzero;fill:#ffffff;fill-opacity:1;" d="M 62.871094 136.273438 C 62.765625 136.386719 62.570312 136.480469 62.320312 136.523438 C 62.175781 136.550781 60.777344 136.5625 57.882812 136.5625 L 53.660156 136.5625 L 53.660156 137.074219 L 53.800781 137.109375 C 54.035156 137.175781 54.269531 137.347656 54.351562 137.519531 C 54.515625 137.855469 54.519531 137.910156 54.53125 142.535156 C 54.550781 147.800781 54.539062 148.078125 54.257812 148.382812 C 54.140625 148.503906 53.933594 148.625 53.765625 148.667969 C 53.664062 148.6875 53.660156 148.695312 53.660156 148.945312 L 53.660156 149.199219 L 58.304688 149.207031 L 62.949219 149.21875 L 63.164062 149.320312 C 63.28125 149.378906 63.386719 149.417969 63.390625 149.414062 C 63.390625 149.40625 63.730469 148.257812 64.144531 146.855469 C 64.550781 145.457031 64.898438 144.292969 64.902344 144.269531 C 64.914062 144.238281 64.59375 144.144531 64.464844 144.144531 C 64.453125 144.144531 64.363281 144.296875 64.273438 144.476562 C 63.664062 145.679688 62.886719 146.671875 62.140625 147.183594 C 61.382812 147.703125 60.445312 147.964844 59.570312 147.90625 C 58.964844 147.859375 58.605469 147.683594 58.445312 147.355469 C 58.269531 147 58.257812 146.789062 58.257812 144.304688 L 58.257812 141.972656 L 58.988281 141.996094 C 60.066406 142.023438 60.457031 142.148438 60.90625 142.605469 C 61.171875 142.875 61.417969 143.308594 61.589844 143.796875 C 61.644531 143.960938 61.699219 144.105469 61.714844 144.121094 C 61.730469 144.136719 61.820312 144.128906 61.914062 144.101562 C 62.070312 144.0625 62.082031 144.046875 62.066406 143.964844 C 62.046875 143.875 61.3125 139.242188 61.3125 139.214844 C 61.3125 139.199219 60.941406 139.195312 60.941406 139.207031 C 60.9375 139.347656 60.78125 139.925781 60.722656 140.046875 C 60.476562 140.535156 60.222656 140.625 59.054688 140.65625 L 58.25 140.675781 L 58.265625 139.65625 C 58.285156 138.496094 58.3125 138.324219 58.539062 138.117188 C 58.75 137.914062 58.972656 137.863281 59.582031 137.867188 C 61.304688 137.882812 62.554688 138.671875 63.308594 140.21875 C 63.398438 140.40625 63.480469 140.574219 63.488281 140.597656 C 63.503906 140.636719 63.839844 140.605469 63.925781 140.554688 C 63.960938 140.53125 63.867188 140.078125 63.480469 138.386719 C 63.210938 137.210938 62.980469 136.242188 62.964844 136.222656 C 62.953125 136.207031 62.910156 136.230469 62.871094 136.273438 Z M 62.871094 136.273438 "/>
<path style=" stroke:none;fill-rule:nonzero;fill:#ffffff;fill-opacity:1;" d="M 69.734375 136.332031 C 69.167969 136.390625 68.503906 136.570312 68.058594 136.78125 C 67.613281 137 67.320312 137.203125 66.972656 137.550781 C 66.46875 138.054688 66.160156 138.628906 65.996094 139.371094 C 65.917969 139.722656 65.90625 140.652344 65.976562 140.976562 C 66.183594 141.960938 66.632812 142.609375 67.488281 143.167969 C 67.9375 143.457031 68.359375 143.636719 69.660156 144.085938 C 70.335938 144.320312 71.015625 144.5625 71.167969 144.621094 C 71.824219 144.886719 72.351562 145.300781 72.550781 145.707031 C 72.644531 145.902344 72.65625 145.960938 72.652344 146.269531 C 72.648438 146.847656 72.449219 147.207031 71.960938 147.523438 C 71.34375 147.917969 70.152344 148.023438 69.140625 147.773438 C 68.707031 147.667969 68.085938 147.351562 67.746094 147.066406 C 67.023438 146.460938 66.503906 145.507812 66.289062 144.394531 L 66.222656 144.035156 L 65.972656 144.035156 C 65.730469 144.035156 65.722656 144.039062 65.722656 144.128906 C 65.722656 144.339844 66.023438 149.363281 66.035156 149.378906 C 66.042969 149.382812 66.148438 149.332031 66.269531 149.261719 C 66.558594 149.085938 66.886719 149.003906 67.171875 149.035156 C 67.296875 149.046875 67.734375 149.117188 68.152344 149.1875 C 69.347656 149.390625 69.628906 149.421875 70.449219 149.445312 C 71.632812 149.480469 72.390625 149.382812 73.28125 149.085938 C 74.085938 148.820312 74.695312 148.464844 75.261719 147.921875 C 76.148438 147.074219 76.539062 146.136719 76.539062 144.847656 C 76.539062 143.554688 76.113281 142.707031 75.164062 142.078125 C 74.492188 141.636719 73.816406 141.351562 72.136719 140.800781 C 70.859375 140.382812 70.414062 140.195312 70.136719 139.945312 C 69.875 139.714844 69.789062 139.507812 69.792969 139.144531 C 69.792969 138.695312 69.96875 138.371094 70.335938 138.125 C 70.890625 137.757812 71.738281 137.722656 72.488281 138.027344 C 73.296875 138.359375 74.085938 139.136719 74.632812 140.144531 L 74.820312 140.488281 L 75.007812 140.464844 C 75.246094 140.433594 75.324219 140.414062 75.324219 140.371094 C 75.324219 140.355469 75.242188 139.464844 75.140625 138.390625 C 75.039062 137.316406 74.957031 136.429688 74.957031 136.410156 C 74.957031 136.390625 74.871094 136.421875 74.773438 136.472656 C 74.667969 136.523438 74.484375 136.59375 74.363281 136.621094 C 74.085938 136.691406 73.886719 136.679688 72.640625 136.507812 C 72.140625 136.4375 71.566406 136.367188 71.355469 136.34375 C 71 136.308594 70.019531 136.304688 69.734375 136.332031 Z M 69.734375 136.332031 "/>
<path style=" stroke:none;fill-rule:nonzero;fill:#ffffff;fill-opacity:1;" d="M 107.46875 136.328125 C 107.417969 136.335938 107.25 136.363281 107.101562 136.382812 C 105.390625 136.625 103.839844 137.625 102.816406 139.144531 C 102.039062 140.296875 101.6875 141.613281 101.742188 143.152344 C 101.804688 144.984375 102.414062 146.410156 103.660156 147.644531 C 104.636719 148.613281 105.671875 149.136719 107.101562 149.390625 C 107.472656 149.457031 108.898438 149.457031 109.269531 149.390625 C 110.71875 149.132812 111.726562 148.617188 112.726562 147.625 C 113.609375 146.75 114.117188 145.875 114.417969 144.726562 C 114.710938 143.609375 114.71875 142.226562 114.433594 141.109375 C 114.050781 139.578125 113.097656 138.234375 111.753906 137.335938 C 110.957031 136.804688 110.039062 136.472656 109.011719 136.347656 C 108.726562 136.308594 107.679688 136.300781 107.46875 136.328125 Z M 108.363281 137.972656 C 108.695312 138.042969 108.941406 138.179688 109.242188 138.464844 C 109.863281 139.042969 110.347656 140.136719 110.574219 141.453125 C 110.777344 142.667969 110.8125 144.34375 110.648438 145.269531 C 110.390625 146.777344 109.714844 147.660156 108.714844 147.8125 C 107.574219 147.992188 106.644531 147.152344 106.097656 145.445312 C 105.59375 143.882812 105.484375 141.425781 105.855469 139.988281 C 106.132812 138.894531 106.765625 138.144531 107.554688 137.972656 C 107.855469 137.90625 108.058594 137.90625 108.363281 137.972656 Z M 108.363281 137.972656 "/>
<path style=" stroke:none;fill-rule:nonzero;fill:#ffffff;fill-opacity:1;" d="M 119.640625 136.332031 C 119.074219 136.390625 118.414062 136.570312 117.96875 136.78125 C 117.523438 137 117.230469 137.203125 116.878906 137.550781 C 116.375 138.054688 116.066406 138.628906 115.90625 139.371094 C 115.828125 139.722656 115.816406 140.652344 115.886719 140.976562 C 116.09375 141.960938 116.542969 142.609375 117.398438 143.167969 C 117.847656 143.457031 118.265625 143.636719 119.570312 144.085938 C 120.246094 144.320312 120.925781 144.5625 121.078125 144.621094 C 121.730469 144.886719 122.261719 145.300781 122.460938 145.707031 C 122.554688 145.902344 122.566406 145.960938 122.5625 146.269531 C 122.558594 146.847656 122.355469 147.207031 121.871094 147.523438 C 121.253906 147.917969 120.0625 148.023438 119.050781 147.773438 C 118.617188 147.667969 117.996094 147.351562 117.65625 147.066406 C 116.933594 146.460938 116.414062 145.507812 116.199219 144.394531 L 116.128906 144.035156 L 115.882812 144.035156 C 115.640625 144.035156 115.632812 144.039062 115.632812 144.128906 C 115.632812 144.339844 115.929688 149.363281 115.945312 149.378906 C 115.953125 149.382812 116.054688 149.332031 116.179688 149.261719 C 116.46875 149.085938 116.796875 149.003906 117.082031 149.035156 C 117.207031 149.046875 117.644531 149.117188 118.0625 149.1875 C 119.257812 149.390625 119.539062 149.421875 120.359375 149.445312 C 121.539062 149.480469 122.300781 149.382812 123.191406 149.085938 C 123.996094 148.820312 124.605469 148.464844 125.171875 147.921875 C 126.058594 147.074219 126.445312 146.136719 126.445312 144.847656 C 126.445312 143.554688 126.023438 142.707031 125.074219 142.078125 C 124.402344 141.636719 123.726562 141.351562 122.046875 140.800781 C 120.769531 140.382812 120.324219 140.195312 120.046875 139.945312 C 119.785156 139.714844 119.699219 139.507812 119.703125 139.144531 C 119.703125 138.695312 119.878906 138.371094 120.246094 138.125 C 120.800781 137.757812 121.648438 137.722656 122.398438 138.027344 C 123.207031 138.359375 123.996094 139.136719 124.542969 140.144531 L 124.730469 140.488281 L 124.917969 140.464844 C 125.15625 140.433594 125.234375 140.414062 125.234375 140.371094 C 125.234375 140.355469 125.152344 139.464844 125.050781 138.390625 C 124.949219 137.316406 124.863281 136.429688 124.863281 136.410156 C 124.863281 136.390625 124.78125 136.421875 124.679688 136.472656 C 124.578125 136.523438 124.394531 136.59375 124.273438 136.621094 C 123.996094 136.691406 123.792969 136.679688 122.546875 136.507812 C 122.050781 136.4375 121.472656 136.367188 121.265625 136.34375 C 120.90625 136.308594 119.929688 136.304688 119.640625 136.332031 Z M 119.640625 136.332031 "/>
<path style=" stroke:none;fill-rule:nonzero;fill:#ffffff;fill-opacity:1;" d="M 77.585938 136.429688 C 77.539062 136.636719 76.792969 140.632812 76.792969 140.675781 C 76.792969 140.714844 76.867188 140.742188 77.039062 140.773438 C 77.171875 140.796875 77.285156 140.8125 77.289062 140.804688 C 77.296875 140.796875 77.335938 140.675781 77.378906 140.539062 C 77.679688 139.601562 78.269531 138.824219 78.964844 138.4375 C 79.367188 138.214844 80.003906 138.066406 80.558594 138.066406 L 80.730469 138.066406 L 80.730469 142.597656 C 80.730469 145.351562 80.714844 147.257812 80.695312 147.445312 C 80.636719 147.917969 80.539062 148.203125 80.375 148.367188 C 80.226562 148.507812 79.953125 148.648438 79.820312 148.652344 C 79.644531 148.652344 79.625 148.679688 79.625 148.949219 L 79.625 149.203125 L 85.585938 149.203125 L 85.585938 148.695312 L 85.429688 148.671875 C 85.058594 148.609375 84.765625 148.40625 84.652344 148.132812 C 84.617188 148.058594 84.566406 147.859375 84.53125 147.691406 C 84.476562 147.421875 84.46875 146.890625 84.457031 142.722656 L 84.441406 138.054688 L 84.839844 138.078125 C 85.53125 138.121094 86.089844 138.304688 86.542969 138.632812 C 86.78125 138.804688 87.132812 139.1875 87.296875 139.4375 C 87.472656 139.710938 87.722656 140.242188 87.828125 140.5625 C 87.875 140.703125 87.921875 140.8125 87.929688 140.8125 C 88.054688 140.8125 88.417969 140.722656 88.417969 140.6875 C 88.417969 140.644531 87.613281 136.460938 87.589844 136.390625 C 87.578125 136.359375 87.515625 136.375 87.378906 136.445312 L 87.1875 136.546875 L 77.988281 136.546875 L 77.800781 136.445312 L 77.605469 136.347656 Z M 77.585938 136.429688 "/>
<path style=" stroke:none;fill-rule:nonzero;fill:#ffffff;fill-opacity:1;" d="M 26.261719 136.820312 L 26.261719 137.074219 L 26.398438 137.109375 C 26.636719 137.175781 26.867188 137.347656 26.953125 137.519531 C 27.125 137.878906 27.125 137.90625 27.125 142.882812 C 27.125 147.855469 27.125 147.886719 26.953125 148.246094 C 26.867188 148.417969 26.636719 148.589844 26.398438 148.65625 L 26.261719 148.691406 L 26.261719 149.203125 L 29.828125 149.203125 L 29.828125 148.691406 L 29.691406 148.671875 C 29.238281 148.597656 28.949219 148.371094 28.835938 148 C 28.695312 147.554688 28.683594 147.1875 28.695312 143.300781 L 28.707031 139.539062 L 30.34375 143.070312 C 31.238281 145.011719 31.988281 146.585938 32 146.570312 C 32.011719 146.554688 32.75 145.023438 33.632812 143.15625 C 34.519531 141.292969 35.265625 139.726562 35.292969 139.675781 C 35.335938 139.601562 35.339844 140.203125 35.332031 143.578125 C 35.324219 147.148438 35.316406 147.597656 35.261719 147.820312 C 35.140625 148.320312 34.941406 148.527344 34.492188 148.636719 L 34.242188 148.699219 L 34.242188 149.203125 L 43.949219 149.203125 L 43.949219 148.695312 L 43.765625 148.671875 C 43.507812 148.632812 43.289062 148.511719 43.164062 148.332031 C 43.070312 148.203125 43.054688 148.136719 43.039062 147.894531 C 43.011719 147.453125 43.105469 147.074219 43.570312 145.671875 L 43.992188 144.398438 L 44.183594 144.425781 C 45.148438 144.539062 45.867188 144.761719 46.507812 145.148438 C 47.613281 145.816406 48.1875 146.71875 48.132812 147.699219 C 48.101562 148.238281 47.886719 148.511719 47.382812 148.648438 L 47.222656 148.691406 L 47.222656 149.203125 L 53.367188 149.203125 L 53.367188 148.695312 L 53.195312 148.65625 C 52.734375 148.539062 52.515625 148.28125 52.191406 147.464844 C 52.046875 147.101562 49.230469 138.300781 49.15625 137.972656 C 49.121094 137.832031 49.105469 137.664062 49.113281 137.597656 C 49.140625 137.429688 49.296875 137.238281 49.472656 137.148438 L 49.613281 137.074219 L 49.613281 136.5625 L 44.136719 136.5625 L 44.136719 137.09375 L 44.304688 137.191406 C 44.53125 137.332031 44.632812 137.550781 44.59375 137.839844 C 44.570312 138.042969 41.839844 146.066406 41.511719 146.902344 C 41.070312 148.023438 40.699219 148.464844 40.039062 148.644531 C 39.722656 148.730469 39.304688 148.445312 39.1875 148.058594 C 39.082031 147.703125 39.058594 146.835938 39.058594 142.882812 C 39.058594 138.929688 39.082031 138.0625 39.1875 137.707031 C 39.269531 137.433594 39.453125 137.246094 39.726562 137.144531 L 39.941406 137.066406 L 39.941406 136.5625 L 34.351562 136.5625 L 34.351562 136.835938 C 34.351562 137.074219 34.359375 137.109375 34.425781 137.132812 C 34.460938 137.140625 34.539062 137.203125 34.59375 137.269531 C 34.679688 137.371094 34.691406 137.410156 34.675781 137.589844 C 34.664062 137.765625 34.574219 137.96875 34.0625 139.019531 C 33.730469 139.691406 33.382812 140.398438 33.292969 140.585938 C 33.132812 140.910156 33.125 140.921875 33.078125 140.84375 C 32.9375 140.574219 31.839844 137.84375 31.804688 137.6875 C 31.769531 137.523438 31.773438 137.476562 31.828125 137.359375 C 31.867188 137.285156 31.949219 137.191406 32.019531 137.144531 C 32.140625 137.074219 32.144531 137.066406 32.144531 136.816406 L 32.144531 136.5625 L 26.261719 136.5625 Z M 46.378906 141.652344 C 46.71875 142.84375 47.003906 143.839844 47.003906 143.855469 C 47.003906 143.871094 46.882812 143.8125 46.730469 143.726562 C 46.140625 143.375 45.617188 143.199219 44.632812 143.019531 L 44.480469 142.992188 L 45.078125 141.269531 C 45.402344 140.320312 45.683594 139.515625 45.699219 139.476562 C 45.710938 139.433594 45.726562 139.417969 45.734375 139.4375 C 45.742188 139.457031 46.03125 140.453125 46.378906 141.652344 Z M 46.378906 141.652344 "/>
<path style=" stroke:none;fill-rule:nonzero;fill:#ffffff;fill-opacity:1;" d="M 89.042969 136.820312 C 89.042969 137.070312 89.046875 137.074219 89.144531 137.097656 C 89.3125 137.136719 89.523438 137.257812 89.636719 137.378906 C 89.917969 137.6875 89.933594 137.957031 89.914062 143.25 C 89.898438 148.050781 89.902344 147.980469 89.703125 148.308594 C 89.621094 148.441406 89.378906 148.597656 89.171875 148.65625 L 89.042969 148.691406 L 89.042969 149.203125 L 94.488281 149.203125 L 94.476562 148.941406 L 94.46875 148.675781 L 94.289062 148.625 C 94.179688 148.59375 94.054688 148.519531 93.957031 148.421875 C 93.660156 148.144531 93.640625 147.933594 93.640625 145.421875 L 93.640625 143.382812 L 93.96875 143.273438 L 94.300781 143.164062 L 94.488281 143.371094 C 95.675781 144.695312 96.765625 146.847656 96.765625 147.878906 C 96.765625 148.089844 96.746094 148.1875 96.691406 148.273438 C 96.617188 148.394531 96.371094 148.597656 96.246094 148.632812 C 96.1875 148.65625 96.175781 148.691406 96.175781 148.929688 L 96.175781 149.203125 L 101.769531 149.203125 L 101.769531 148.707031 L 101.59375 148.625 C 101.132812 148.417969 100.8125 147.917969 100.308594 146.644531 C 99.5 144.585938 98.75 143.171875 97.910156 142.121094 C 97.78125 141.960938 97.683594 141.828125 97.691406 141.824219 C 97.699219 141.820312 97.871094 141.703125 98.070312 141.5625 C 98.273438 141.429688 98.558594 141.21875 98.695312 141.105469 C 99.054688 140.816406 99.554688 140.28125 99.703125 140.027344 C 100.011719 139.519531 100.152344 138.835938 100.078125 138.265625 C 100.023438 137.863281 99.929688 137.609375 99.730469 137.34375 C 99.492188 137.019531 99.167969 136.832031 98.582031 136.664062 L 98.292969 136.582031 L 89.042969 136.558594 Z M 95.582031 137.914062 C 95.992188 138.042969 96.207031 138.246094 96.34375 138.636719 C 96.425781 138.871094 96.425781 139.5 96.34375 139.804688 C 96.09375 140.753906 95.203125 141.503906 93.90625 141.867188 L 93.640625 141.941406 L 93.640625 140.210938 C 93.640625 138.296875 93.652344 138.195312 93.859375 138.015625 C 93.960938 137.933594 94.160156 137.871094 94.46875 137.832031 C 94.722656 137.792969 95.355469 137.839844 95.582031 137.914062 Z M 95.582031 137.914062 "/>
<path style=" stroke:none;fill-rule:nonzero;fill:#ffffff;fill-opacity:1;" d="M 1.214844 141.929688 L 1.214844 142.351562 L 24.421875 142.351562 L 24.421875 141.507812 L 1.214844 141.507812 Z M 24.128906 141.929688 L 24.128906 142.019531 L 1.507812 142.019531 L 1.507812 141.839844 L 24.128906 141.839844 Z M 24.128906 141.929688 "/>
<path style=" stroke:none;fill-rule:nonzero;fill:#ffffff;fill-opacity:1;" d="M 127.144531 141.949219 L 127.144531 142.351562 L 149.140625 142.351562 L 149.140625 141.546875 L 127.144531 141.546875 Z M 148.84375 141.929688 L 148.84375 142.019531 L 127.441406 142.019531 L 127.441406 141.839844 L 148.84375 141.839844 Z M 148.84375 141.929688 "/>
</g>
</svg>